<?xml version="1.0" encoding="UTF-8" standalone="no"?>
<!-- Generator: Adobe Illustrator 25.0.1, SVG Export Plug-In . SVG Version: 6.00 Build 0)  -->

<svg
   version="1.1"
   id="Layer_1"
   x="0px"
   y="0px"
   viewBox="0 0 316.32 306.48"
   style="enable-background:new 0 0 316.32 306.48;"
   xml:space="preserve"
   sodipodi:docname="logo-outline.svg"
   inkscape:version="1.4 (e7c3feb100, 2024-10-09)"
   inkscape:export-filename="logo.svg"
   inkscape:export-xdpi="96.089996"
   inkscape:export-ydpi="96.089996"
   xmlns:inkscape="http://www.inkscape.org/namespaces/inkscape"
   xmlns:sodipodi="http://sodipodi.sourceforge.net/DTD/sodipodi-0.dtd"
   xmlns="http://www.w3.org/2000/svg"
   xmlns:svg="http://www.w3.org/2000/svg"><defs
   id="defs1" /><sodipodi:namedview
   id="namedview1"
   pagecolor="#505050"
   bordercolor="#ffffff"
   borderopacity="1"
   inkscape:showpageshadow="0"
   inkscape:pageopacity="0"
   inkscape:pagecheckerboard="1"
   inkscape:deskcolor="#505050"
   inkscape:zoom="1.28"
   inkscape:cx="153.51563"
   inkscape:cy="235.54688"
   inkscape:window-width="1920"
   inkscape:window-height="1043"
   inkscape:window-x="0"
   inkscape:window-y="0"
   inkscape:window-maximized="1"
   inkscape:current-layer="g7087"
   inkscape:export-bgcolor="#ffffff00" />

<g
   id="g7087"
   inkscape:export-filename="g7087.svg"
   inkscape:export-xdpi="10.169492"
   inkscape:export-ydpi="10.169492"
   transform="matrix(0.6203963,0,0,0.6203963,54.574744,74.440763)"><path
     style="display:inline;fill:#5e9394;stroke:#ffffff"
     d="m 206.58178,313.61676 c -1.925,-1.17849 -10.77967,-6.32093 -19.67704,-11.42764 -8.89737,-5.1067 -21.72237,-12.97726 -28.5,-17.49011 -6.77763,-4.51286 -17.58868,-12.08124 -24.02456,-16.81863 -6.43588,-4.73738 -11.94113,-9.19384 -12.23389,-9.90324 -0.29276,-0.7094 1.26136,-3.2357 3.4536,-5.614 2.25208,-2.44323 7.14472,-5.92753 11.24781,-8.01015 3.99405,-2.02727 12.19755,-5.37992 18.22999,-7.45031 l 10.96807,-3.76435 4.59142,-9.07041 c 2.52529,-4.98872 7.90552,-13.71225 11.95607,-19.38562 4.05055,-5.67337 11.25272,-14.83775 16.00482,-20.36528 4.7521,-5.52754 9.32793,-10.6141 10.16851,-11.30348 0.84059,-0.68937 3.70597,-1.66023 6.36752,-2.15746 2.66156,-0.49723 5.4261,-1.70671 6.14344,-2.68772 0.71733,-0.98102 1.30424,-3.63456 1.30424,-5.89676 0,-2.8149 -0.90974,-5.5476 -2.88236,-8.6581 -1.5853,-2.49975 -5.5228,-6.70642 -8.75,-9.34816 -3.2272,-2.64173 -8.66823,-6.12142 -12.09118,-7.73264 -4.47447,-2.10619 -7.79283,-2.94359 -11.80745,-2.97967 -4.81486,-0.0433 -5.99422,0.34293 -8.56313,2.80409 -1.78979,1.71473 -3.61123,5.02834 -4.56226,8.29979 -0.87068,2.99503 -3.04161,7.73253 -4.82429,10.52778 -1.78267,2.79524 -4.26502,7.10726 -5.51632,9.58226 -1.2513,2.475 -5.22073,9.225 -8.82096,15 -3.60022,5.775 -9.16827,13.875 -12.37345,18 -3.20518,4.125 -7.59102,9.63559 -9.74631,12.24574 -2.86284,3.46702 -4.22274,6.29621 -5.04701,10.5 -0.62056,3.16485 -2.69164,11.59555 -4.60241,18.73489 -1.91077,7.13935 -3.89566,13.40217 -4.41087,13.91737 -0.58232,0.58233 -1.77643,0.56207 -3.15607,-0.0535 -1.22063,-0.54467 -6.52282,-5.00748 -11.78263,-9.91738 -5.259813,-4.90989 -13.019805,-12.75208 -17.244426,-17.42708 -4.224621,-4.675 -10.413102,-12.04821 -13.75218,-16.38491 -3.339079,-4.33671 -11.218964,-15.62935 -17.510856,-25.09476 -6.291892,-9.46541 -11.75766,-18.47628 -12.146151,-20.02416 l -0.706348,-2.81431 10.398332,0.59182 c 5.719083,0.3255 18.498332,1.77535 28.398332,3.2219 9.9,1.44654 25.874997,3.98752 35.499997,5.64662 9.625,1.65911 19.975,3.38663 23,3.83895 3.95001,0.59063 6.06611,0.4654 7.50877,-0.44437 1.10482,-0.69671 2.64823,-2.4616 3.42979,-3.92197 0.89272,-1.66807 1.06952,-3.00673 0.47555,-3.6007 -0.52001,-0.52001 -9.03842,-2.29543 -18.92979,-3.94538 -9.89138,-1.64994 -25.85932,-4.14261 -35.484317,-5.53925 -9.625,-1.39665 -26.275,-3.24178 -37,-4.1003 -15.557225,-1.24533 -19.826115,-1.90146 -21.112887,-3.24506 -0.887088,-0.92626 -3.43429,-6.63412 -5.660449,-12.68412 -2.22616,-6.05 -4.82752,-13.40182 -5.7808,-16.33738 -0.953281,-2.93557 -1.781078,-6.94426 -1.839551,-8.90822 -0.09303,-3.1246 0.254329,-3.66977 2.779563,-4.36247 1.587232,-0.4354 9.195776,-1.32954 16.907876,-1.98698 8.907152,-0.75932 22.262999,-0.97368 36.614124,-0.58767 12.425669,0.33423 27.092121,1.09094 32.592121,1.68158 5.5,0.59064 17.875,2.1921 27.5,3.5588 9.625,1.3667 23.25769,3.43373 30.29487,4.5934 l 12.79487,2.10848 1.39923,-1.87977 c 0.76958,-1.03387 1.9553,-2.90136 2.63493,-4.14997 0.76001,-1.39628 0.87776,-2.62085 0.3059,-3.18108 -0.51139,-0.50098 -13.7548,-2.49237 -29.4298,-4.42531 -15.675,-1.93293 -34.35,-4.096709 -41.5,-4.808386 -7.77706,-0.77409 -26.057352,-1.282856 -45.499997,-1.266328 -20.589375,0.0175 -35.412406,0.478096 -40.446956,1.256798 -6.38081,0.98693 -8.195549,0.979409 -9.208374,-0.03816 -0.69378,-0.697031 -1.996387,-5.542329 -2.894682,-10.767329 -1.30286,-7.578179 -1.778458,-20.727481 -2.350993,-65 -0.39475,-30.5249996 -0.530368,-56.0625 -0.301373,-56.75 0.228996,-0.6875 1.005884,-1.25 1.726418,-1.25 0.720535,0 6.005611,1.571228 11.744614,3.491618 5.739003,1.920391 15.56383,4.3566 21.832949,5.413799 6.269118,1.057199 15.673397,2.22539 20.898397,2.595981 5.328833,0.377956 14.947106,0.167141 21.905998,-0.480139 6.823299,-0.634668 17.467909,-2.432343 23.654689,-3.994835 6.18678,-1.562492 15.05756,-4.625788 19.71284,-6.807324 4.65527,-2.181536 11.33566,-5.911114 14.84531,-8.287951 3.50964,-2.376837 8.77585,-6.579404 11.70269,-9.339038 2.92684,-2.759633 7.74889,-8.242726 10.71566,-12.184656 2.96678,-3.94192 6.1214,-7.4462 7.01027,-7.78729 0.88886,-0.34109 1.77989,-0.62017 1.98005,-0.62017 0.20016,0 3.27669,3.7125 6.83673,8.25 3.56003,4.537505 8.42196,10.120737 10.80428,12.407187 2.38231,2.28645 7.93148,6.739875 12.33148,9.896501 4.4,3.156625 11.15,7.201247 15,8.988049 3.85,1.786801 10.64604,4.392541 15.1023,5.790532 4.45626,1.397992 12.83902,3.245138 18.62834,4.104769 6.02926,0.895259 17.09289,1.561249 25.8977,1.558945 9.00495,-0.0024 19.28213,-0.6382 24.813,-1.53517 5.19273,-0.842132 13.51773,-2.917443 18.5,-4.611802 4.98226,-1.69436 11.63018,-4.207813 14.77314,-5.585451 3.17991,-1.393835 6.4649,-2.21683 7.40641,-1.85554 l 1.69194,0.649257 -0.63081,73.221364 c -0.34694,40.27175 -1.09307,77.496369 -1.65808,82.721369 -0.565,5.225 -1.75214,13.1 -2.63809,17.49999 -0.88595,4.4 -2.42945,9.575 -3.42999,11.5 -1.00055,1.925 -3.31243,4.49033 -5.13752,5.70073 -1.82509,1.2104 -7.60124,4.22698 -12.8359,6.70351 -5.23466,2.47653 -13.7579,5.88846 -18.94053,7.58207 -5.18263,1.6936 -14.84972,4.17304 -21.48243,5.50987 -6.63271,1.33682 -19.03448,2.92865 -27.55948,3.5374 -8.525,0.60875 -20.45,0.83732 -26.5,0.50795 -6.05,-0.32938 -13.61309,-0.85812 -16.80687,-1.17499 l -5.80687,-0.57611 -3.94313,4.27117 c -2.16872,2.34915 -3.94313,4.82123 -3.94313,5.4935 0,0.67228 1.4625,1.48971 3.25,1.81651 1.7875,0.32681 7.75,1.12185 13.25,1.76677 5.5,0.64492 19,1.16659 30,1.15927 13.837,-0.009 23.34746,-0.53716 30.86309,-1.71331 5.9747,-0.93499 15.15816,-2.81594 20.40769,-4.17989 5.24953,-1.36394 14.98614,-4.7469 21.63691,-7.51769 6.65077,-2.77078 13.31264,-5.54598 14.80415,-6.16711 1.49151,-0.62112 2.95517,-0.88597 3.25259,-0.58856 0.29741,0.29742 -0.29777,2.97709 -1.32263,5.95484 -1.02485,2.97774 -3.52235,8.7077 -5.54999,12.73325 -2.02765,4.02555 -7.34046,13.02555 -11.80625,20 -4.4658,6.97445 -11.53197,17.17389 -15.7026,22.66543 -4.17062,5.49153 -14.55796,16.97378 -23.08296,25.5161 -8.525,8.54233 -20,19.14859 -25.5,23.56948 -5.5,4.42089 -12.6926,10.03864 -15.98357,12.4839 -3.29096,2.44525 -11.61596,8.15837 -18.5,12.69582 -6.88403,4.53745 -13.19143,8.24827 -14.01643,8.24626 -0.825,-0.002 -3.075,-0.96787 -5,-2.14636 z m 38.9257,-174.42392 c 5.18414,-7.65924 17.08939,-24.95089 26.45613,-38.42589 9.36673,-13.474997 21.36314,-30.349997 26.65869,-37.499997 5.29555,-7.15 11.32793,-15.015096 13.40531,-17.47799 2.07737,-2.462893 4.19548,-5.578569 4.7069,-6.923723 0.51143,-1.345155 0.65312,-3.705781 0.31486,-5.245837 -0.33825,-1.540056 -2.57626,-4.981491 -4.97335,-7.647633 -2.39709,-2.666143 -7.62093,-7.036486 -11.60852,-9.711873 -3.9876,-2.675387 -9.75568,-5.895096 -12.81795,-7.1549066 -3.06227,-1.259812 -7.43041,-2.301247 -9.70698,-2.314302 -2.54105,-0.01457 -4.91252,0.651947 -6.14205,1.726265 -1.10155,0.9625 -6.02451,7.3749996 -10.93991,14.2499996 -4.9154,6.875 -15.20148,21.113671 -22.85796,31.641491 -7.65648,10.52782 -21.23337,29.31046 -30.17087,41.739201 -8.9375,12.428745 -16.25,23.240885 -16.25,24.026975 0,0.86582 2.48185,2.25518 6.29558,3.52431 3.46257,1.15226 9.12888,3.77114 12.59181,5.81972 3.46293,2.04858 8.96732,6.37104 12.23199,9.60546 3.26466,3.23442 7.1025,7.87168 8.52853,10.30502 1.42604,2.43334 3.10113,4.25896 3.72244,4.05692 0.62131,-0.20203 5.37122,-6.63398 10.55535,-14.29321 z M 331.00652,18.31646 c 0.36318,-1.935931 0.15956,-5.379604 -0.4525,-7.652606 -0.73152,-2.7166726 -2.80513,-5.8250336 -6.05178,-9.0716816 -2.79331,-2.793307 -7.69282,-6.227643 -11.27794,-7.905324 -3.48645,-1.631504 -9.13068,-3.458116 -12.54274,-4.0591394 -5.25161,-0.925053 -6.88816,-0.831385 -10.66317,0.6103044 -2.45269,0.93669 -4.9237,2.570569 -5.49114,3.630843 -0.76321,1.426064 -0.69518,2.024953 0.26141,2.301191 0.71122,0.205382 3.99312,1.34954 7.29312,2.542573 3.3,1.19303301 9.26115,4.199442 13.247,6.680908 4.43358,2.760214 10.06273,7.5993826 14.5,12.4650976 l 7.253,7.953343 1.6322,-1.987817 c 0.89771,-1.093299 1.92935,-3.57176 2.29254,-5.507692 z M 130.58178,237.84368 c 0,-0.5078 1.165,-2.3078 2.5889,-4 1.42389,-1.6922 3.22389,-3.07673 4,-3.07673 0.7761,0 1.4111,0.69649 1.4111,1.54775 0,0.85126 -1.19071,2.65126 -2.64602,4 -1.45531,1.34874 -3.25531,2.45225 -4,2.45225 -0.74469,0 -1.35398,-0.41547 -1.35398,-0.92327 z m 15,-9.78616 c -0.825,-0.30335 -2.2875,-1.23757 -3.25,-2.07604 -1.07503,-0.93651 -1.73773,-2.91109 -1.71819,-5.11951 0.0175,-1.97726 0.651,-4.41179 1.4078,-5.41006 0.7568,-0.99827 3.54683,-2.5917 6.20007,-3.54096 4.25303,-1.52162 5.57568,-2.78644 11.17347,-10.68496 3.49217,-4.92747 8.79719,-13.09286 11.78895,-18.1453 2.99175,-5.05244 6.53701,-12.10194 7.87834,-15.66555 1.34134,-3.5636 2.98261,-9.55478 3.64726,-13.31373 0.66465,-3.75895 1.63792,-7.39696 2.16282,-8.08446 0.52491,-0.6875 1.93592,-1.25 3.13558,-1.25 1.19967,0 4.47894,1.14501 7.28727,2.54446 2.80834,1.39945 7.17169,4.3627 9.69635,6.58499 2.52465,2.22229 4.59028,4.63433 4.59028,5.36008 0,0.72576 -2.41123,2.68037 -5.3583,4.3436 -3.28219,1.85235 -8.86983,6.82942 -14.4213,12.84545 -4.98465,5.40178 -11.40308,12.74642 -14.26317,16.32142 -2.86009,3.575 -7.83481,10.40434 -11.05493,15.1763 -3.22012,4.77196 -6.31546,8.96102 -6.87853,9.30901 -0.56307,0.348 -1.02377,2.21075 -1.02377,4.13945 0,1.9287 -0.46583,4.37714 -1.03518,5.44098 -0.75297,1.40695 -2.04791,1.91274 -4.75,1.85532 -2.04315,-0.0434 -4.38982,-0.32715 -5.21482,-0.63049 z"
     id="path7089"
     sodipodi:nodetypes="sssssssscssssssssssssssssssssssssssscsssssssssssssssssssscsssssssssssssssssssssssssssssssssscssssssssssscsssscsssssssssssssssssssssssssssssssssssssssssssssssscssssssssssssssssssssssssssssssss" /><path
     style="display:inline;fill:#0a797b;stroke:#ffffff"
     d="m 191.58178,303.13682 c -10.175,-5.82125 -26.15,-15.77343 -35.5,-22.11596 -9.35,-6.34253 -20.4875,-14.22555 -24.75,-17.51783 -4.2625,-3.29229 -7.75,-6.32243 -7.75,-6.73367 0,-0.41123 2.05668,-2.64346 4.57039,-4.96053 2.51372,-2.31706 7.45001,-5.56037 10.96953,-7.20735 3.51953,-1.64699 11.22873,-4.64827 17.13157,-6.66951 l 10.73242,-3.67499 4.55398,-8.99641 c 2.50468,-4.94803 7.22193,-12.82078 10.48278,-17.49501 3.26085,-4.67424 7.73871,-10.74861 9.95079,-13.49861 2.21209,-2.75 7.34625,-8.7125 11.40925,-13.25 6.09451,-6.80626 7.90451,-8.25 10.34294,-8.25 1.62562,0 4.21994,-0.65378 5.76516,-1.45284 1.54522,-0.79906 3.38054,-2.83149 4.0785,-4.51652 0.69796,-1.68502 1.0167,-4.61855 0.7083,-6.51895 -0.30839,-1.9004 -1.93543,-5.45336 -3.61564,-7.89546 -1.68022,-2.44211 -5.43668,-6.47499 -8.34771,-8.96195 -2.91103,-2.48697 -8.64146,-6.12658 -12.7343,-8.08802 -5.61053,-2.68877 -8.73169,-3.56626 -12.68495,-3.56626 -4.43536,0 -5.78643,0.47677 -8.76698,3.09374 -2.53028,2.22161 -4.0666,4.85186 -5.44991,9.3305 -1.05949,3.43022 -3.13219,8.00054 -4.60601,10.15627 -1.47381,2.15572 -4.04851,6.61949 -5.72156,9.91949 -1.67304,3.3 -6.19348,10.95 -10.0454,17 -3.85193,6.05 -8.62793,13.02192 -10.61333,15.49315 -1.9854,2.47124 -5.9623,7.30299 -8.83756,10.73723 -2.87526,3.43424 -5.4954,7.48733 -5.82253,9.00685 -0.32713,1.51953 -2.23309,9.44547 -4.23546,17.61321 -2.00236,8.16774 -4.1687,15.57257 -4.81408,16.45517 -1.04871,1.4342 -1.58398,1.29655 -5.0368,-1.29525 -2.12486,-1.595 -9.39348,-8.46371 -16.152472,-15.2638 -6.758997,-6.80009 -15.94378,-16.94992 -20.410629,-22.55518 -4.46685,-5.60526 -13.449262,-18.27028 -19.960915,-28.14449 -6.511654,-9.8742 -11.839371,-18.58238 -11.839371,-19.35149 0,-1.12977 1.392602,-1.27196 7.25,-0.74022 3.9875,0.36198 12.875,1.34347 19.75,2.18108 6.875,0.83761 25.714118,3.73711 41.864707,6.44334 16.15059,2.70622 30.43526,4.9204 31.74373,4.9204 1.64467,0 3.31782,-1.29597 5.42039,-4.19849 1.67275,-2.30917 2.91307,-4.86431 2.75627,-5.67808 -0.1568,-0.81378 -1.6153,-1.83533 -3.24111,-2.27012 -1.62581,-0.43479 -14.22581,-2.59082 -28,-4.79118 -13.77419,-2.20035 -30.218987,-4.66539 -36.543987,-5.47787 -6.325,-0.81247 -18.25,-1.96469 -26.5,-2.56047 -8.25,-0.59578 -16.034537,-1.30897 -17.298972,-1.58486 -1.571934,-0.34298 -2.94702,-1.99387 -4.348164,-5.22027 -1.127055,-2.59526 -3.998303,-10.56866 -6.380551,-17.71866 -2.382247,-7.15 -4.475574,-14.10194 -4.651836,-15.44877 -0.272574,-2.08274 0.202684,-2.56142 3.179523,-3.20238 1.925,-0.41449 12.096153,-1.30575 22.602562,-1.98057 14.845443,-0.95352 23.571839,-0.9657 39.157129,-0.0546 11.030016,0.64478 27.183856,2.08452 35.897436,3.19943 8.71358,1.1149 24.16787,3.37382 34.34287,5.01982 10.175,1.64599 19.6865,3.25466 21.13666,3.57482 2.27582,0.50244 3.06274,-0.0372 5.75,-3.94298 1.71234,-2.4888 3.11334,-5.18337 3.11334,-5.98793 0,-0.80456 -0.7875,-1.7733 -1.75,-2.15276 -0.9625,-0.37946 -11.65,-1.96625 -23.75,-3.5262 -12.1,-1.55996 -29.23609,-3.552954 -38.0802,-4.428883 -8.84411,-0.87593 -25.26911,-1.985881 -36.499998,-2.466559 -11.230889,-0.480678 -27.844799,-0.515394 -36.919799,-0.07715 -9.075,0.438248 -19.7152,1.115331 -23.644889,1.50463 l -7.14489,0.707816 -0.58998,-1.868853 c -0.324489,-1.027869 -1.250968,-7.718853 -2.058842,-14.868853 -0.97492,-8.628416 -1.693958,-29.892521 -2.13824,-63.234143 -0.589467,-44.237122 -0.489545,-50.303152 0.836999,-50.812195 0.828507,-0.317928 3.246406,0.152463 5.373109,1.045313 2.126704,0.89285 8.141733,2.742594 13.366733,4.110542 5.225,1.367948 14,3.132178 19.5,3.92051 5.5,0.788333 16.3,1.439767 24,1.447631 7.78686,0.008 18.216057,-0.66147 23.499997,-1.508403 5.225,-0.837486 12.85948,-2.435905 16.96551,-3.552041 4.10603,-1.116137 11.02749,-3.595454 15.38103,-5.509593 4.35354,-1.914139 11.11906,-5.531408 15.0345,-8.038374 3.91543,-2.506966 9.75184,-7.103124 12.9698,-10.213684 3.21796,-3.11056 8.29963,-8.693063 11.2926,-12.405563 2.99296,-3.712498 6.0088,-6.749998 6.70186,-6.749998 0.69306,0 4.8015,4.30414 9.12987,9.564765 5.42445,6.592775 10.9479,11.883492 17.77613,17.027126 5.4485,4.104297 12.90839,8.970873 16.57753,10.814614 3.66915,1.84374 10.94617,4.707455 16.17117,6.363812 5.225,1.656356 12.875,3.609682 17,4.340724 4.608,0.816641 15.5976,1.340695 28.5,1.359062 13.90659,0.0198 23.36447,-0.435675 28,-1.348421 3.85,-0.758074 11.725,-2.952727 17.5,-4.877008 5.775,-1.924281 12.24104,-4.377999 14.36898,-5.452707 2.48078,-1.25291 4.21458,-1.608414 4.83218,-0.99081 0.60814,0.608138 0.80651,28.7460334 0.53814,76.331023 -0.35609,63.13717 -0.68544,76.90947 -2.02956,84.86782 -0.88246,5.225 -2.11827,11.87564 -2.74624,14.7792 -0.62796,2.90355 -2.26719,6.61671 -3.64274,8.25145 -1.37555,1.63475 -5.36321,4.57291 -8.86147,6.52924 -3.49826,1.95634 -10.1932,5.10246 -14.87764,6.99139 -4.68445,1.88892 -14.49418,4.9895 -21.79941,6.89019 -7.30523,1.90068 -16.88224,4.02356 -21.28224,4.71749 -5.06339,0.79855 -18.86381,1.27625 -37.59556,1.30136 -22.43733,0.0301 -29.96661,0.34747 -31.12962,1.31221 -0.84373,0.69989 -2.80836,3.11136 -4.36585,5.35882 l -2.8318,4.08629 1.7562,1.28417 c 0.96591,0.70629 6.34855,1.89482 11.96142,2.64117 6.35239,0.84469 19.64357,1.34469 35.20521,1.32439 21.86049,-0.0285 26.56976,-0.32559 37.5,-2.36545 6.875,-1.28306 17.07438,-3.82463 22.66528,-5.64795 5.59091,-1.82332 13.64178,-4.92137 17.89084,-6.88455 4.24905,-1.96319 8.3675,-3.56943 9.1521,-3.56943 1.01565,0 1.22929,0.6481 0.74169,2.25 -0.37667,1.2375 -2.18124,5.52013 -4.01015,9.51695 -1.82891,3.99683 -6.50952,12.39885 -10.40136,18.67116 -3.89184,6.27232 -9.53991,14.8383 -12.55128,19.03552 -3.01137,4.19722 -8.56349,11.3202 -12.33805,15.82884 -3.77456,4.50864 -13.14685,14.30172 -20.8273,21.76239 -7.68045,7.46068 -17.26506,16.23568 -21.29913,19.5 -4.03407,3.26433 -10.97697,8.59484 -15.42866,11.84558 -4.45169,3.25074 -13.09884,9.21324 -19.2159,13.25 -6.11706,4.03676 -11.74206,7.3292 -12.5,7.31654 -0.75794,-0.0127 -9.70308,-4.78586 -19.87808,-10.60711 z m 45.70916,-149.61987 c 1.13178,-1.2375 7.19704,-9.9 13.47836,-19.25 6.28131,-9.35 16.77042,-24.65 23.30913,-34 6.5387,-9.349997 16.59292,-23.524997 22.34271,-31.499997 5.74979,-7.975 12.3287,-16.75 14.61982,-19.5 2.29111,-2.75 4.92507,-6.112628 5.85324,-7.472506 0.92817,-1.359879 1.68758,-3.969726 1.68758,-5.79966 0,-1.829935 -0.66002,-4.603496 -1.46671,-6.16347 -0.8067,-1.559975 -4.14113,-5.250128 -7.40984,-8.200341 -3.26872,-2.950213 -8.43519,-6.867205 -11.48105,-8.704427 -3.04586,-1.837222 -8.14893,-4.4140406 -11.34016,-5.7262646 -3.19123,-1.312223 -7.29432,-2.396541 -9.11798,-2.409596 -1.82366,-0.01305 -4.14901,0.422219 -5.16746,0.967273 -1.01844,0.545055 -6.02142,6.7325546 -11.11773,13.7499996 -5.0963,7.017446 -12.2553,16.808992 -15.90887,21.758992 -3.65357,4.95 -12.26972,16.875 -19.147,26.5 -6.87728,9.625 -17.99857,25.114643 -24.71398,34.421427 -6.71541,9.30679 -12.0743,17.63179 -11.90864,18.5 0.17861,0.93615 3.66933,2.90565 8.57749,4.8395 4.55196,1.79351 10.17207,4.45513 12.48912,5.91471 2.31704,1.45959 7.07052,5.39217 10.56327,8.73908 3.49275,3.3469 7.03451,7.43528 7.87059,9.08528 0.83607,1.65 2.21061,3.7875 3.05453,4.75 0.84392,0.9625 1.83621,1.75 2.2051,1.75 0.36888,0 1.5967,-1.0125 2.72848,-2.25 z M 328.19225,27.00164 c 0.61076,-0.404078 1.84826,-2.17484 2.75,-3.935027 0.90174,-1.760187 1.63953,-5.265615 1.63953,-7.789838 0,-2.558583 -0.85298,-6.2614806 -1.92758,-8.3678736 -1.06017,-2.078106 -3.64767,-5.330428 -5.75,-7.22737999 -2.10233,-1.89695301 -5.39742,-4.41547301 -7.32242,-5.59671101 -1.925,-1.181239 -6.2983,-3.085991 -9.71845,-4.2327824 -3.42015,-1.146791 -8.52714,-2.085075 -11.34887,-2.085075 -2.82173,0 -6.6765,0.733663 -8.56615,1.630363 -1.88966,0.8966994 -4.08235,2.5535324 -4.87266,3.6818494 -1.02044,1.456881 -1.13339,2.417211 -0.38971,3.313292 0.57597,0.693993 3.84616,2.193238 7.2671,3.33165401 3.42095,1.138417 9.07874,3.75127199 12.57289,5.80634499 3.49414,2.055073 8.51344,5.6702986 11.154,8.0338336 2.64056,2.363536 6.43703,6.526036 8.4366,9.25 1.99958,2.723965 3.93476,4.945772 4.30042,4.93735 0.36566,-0.0084 1.16454,-0.345922 1.7753,-0.75 z M 134.58178,234.26695 c 0,-0.275 0.225,-0.5 0.5,-0.5 0.275,0 0.5,0.225 0.5,0.5 0,0.275 -0.225,0.5 -0.5,0.5 -0.275,0 -0.5,-0.225 -0.5,-0.5 z m 12,-7.20943 c -0.825,-0.30335 -2.2875,-1.23757 -3.25,-2.07604 -0.9625,-0.83848 -1.75,-2.80476 -1.75,-4.36951 0,-1.56476 0.88856,-3.73357 1.97457,-4.81958 1.08601,-1.08601 3.22351,-2.2486 4.75,-2.58352 1.52649,-0.33493 3.29631,-0.76628 3.93293,-0.95856 0.63663,-0.19228 4.27843,-4.76719 8.09289,-10.16648 3.81447,-5.39928 9.34043,-13.82986 12.27992,-18.73462 2.93949,-4.90476 6.83116,-13.22976 8.64816,-18.5 1.81701,-5.27024 3.30767,-10.95875 3.31259,-12.64113 0.005,-1.68238 0.57144,-3.82276 1.25894,-4.7564 1.03655,-1.40765 1.84766,-1.5259 4.75,-0.69245 1.925,0.55278 6.49715,3.05096 10.16032,5.55149 3.66317,2.50054 6.90052,5.17238 7.19409,5.93742 0.3487,0.90869 -1.30218,2.42715 -4.7612,4.3793 -3.17179,1.79005 -8.74492,6.73953 -13.89867,12.34337 -4.73203,5.14528 -11.61399,13.16681 -15.29324,17.8256 -3.67925,4.6588 -8.69535,11.47742 -11.14689,15.15249 -2.45153,3.67507 -5.08668,6.92345 -5.85587,7.21861 -0.88316,0.3389 -1.39854,2.04651 -1.39854,4.6338 0,2.25342 -0.46583,4.96754 -1.03518,6.03138 -0.65487,1.22364 -2.03258,1.90526 -3.75,1.85532 -1.49315,-0.0434 -3.38982,-0.32715 -4.21482,-0.63049 z"
     id="path7088"
     sodipodi:nodetypes="ssssssscssssssssssssssssssssssssssssssssssssssssssssssssssssssscssssssscsssssssssssssssssssssssssssscssssssssssssssssssssssssssssssssssssssssssssssssssssssssssssssssssssssssssscsssssssssssss" /><path
     style="display:inline;fill:#0b5457;stroke:#ffffff"
     d="m 205.58178,310.88907 c -2.475,-1.56909 -9.67451,-5.72597 -15.99891,-9.23751 -6.32441,-3.51153 -19.82441,-11.95712 -30,-18.76796 -10.1756,-6.81084 -22.21359,-15.27277 -26.75109,-18.80428 -4.5375,-3.53151 -8.25,-6.90587 -8.25,-7.49857 0,-0.5927 1.61281,-2.59872 3.58402,-4.45781 1.97121,-1.85909 7.25871,-5.15307 11.75,-7.31996 4.49129,-2.16689 11.99098,-5.16705 16.66598,-6.66703 4.675,-1.49997 9.10221,-3.18468 9.83824,-3.74379 0.73603,-0.55911 3.27214,-4.86601 5.63579,-9.57088 2.36366,-4.70488 8.06145,-13.81781 12.66176,-20.25096 4.60032,-6.43315 12.33329,-15.99565 17.18439,-21.25 l 8.82017,-9.55337 4.17983,0.079 4.17982,0.0789 -4.29078,1.51798 c -3.11703,1.10273 -5.37385,2.95248 -8.25,6.76192 -2.17757,2.88417 -3.95922,5.75698 -3.95922,6.38402 0,0.62704 1.125,1.37365 2.5,1.65913 1.375,0.28548 3.5125,0.72467 4.75,0.97599 l 2.25,0.45693 v 60.70736 c 0,39.58944 -0.34786,60.8198 -1,61.03057 -0.55,0.17776 -3.025,-0.96059 -5.5,-2.52968 z m -99.68089,-68.36835 c -5.58705,-5.08957 -13.180566,-12.62877 -16.874483,-16.75377 -3.693916,-4.125 -9.090769,-10.46418 -11.993006,-14.08706 -2.902238,-3.62289 -8.0995,-10.59789 -11.549472,-15.5 -3.449972,-4.90212 -9.553257,-14.07649 -13.562857,-20.38749 -4.0096,-6.31101 -6.96373,-11.79149 -6.564735,-12.17885 0.398996,-0.38736 7.025446,-0.0502 14.725446,0.74926 7.7,0.79945 23.9,3.01757 36,4.92916 12.099997,1.91158 28.072397,4.5296 35.494207,5.81781 7.42182,1.28822 14.2368,2.14802 15.14441,1.91067 0.90761,-0.23734 3.04772,-2.37754 4.75579,-4.75599 1.70808,-2.37846 3.10559,-4.82454 3.10559,-5.43574 0,-0.6112 -1.02344,-1.50038 -2.2743,-1.97596 -1.25087,-0.47558 -12.16337,-2.46699 -24.25,-4.42536 -12.08664,-1.95836 -28.725697,-4.484 -36.975697,-5.61252 -8.25,-1.12852 -23.03991,-2.68838 -32.866468,-3.46636 -9.826558,-0.77798 -18.18734,-1.78959 -18.579516,-2.24804 -0.392175,-0.45844 -2.125588,-4.65853 -3.852028,-9.33353 -1.72644,-4.675 -4.555962,-12.87536 -6.287826,-18.22302 -1.731863,-5.34766 -2.900972,-10.36896 -2.598019,-11.15845 0.371044,-0.96692 3.101998,-1.71009 8.36734,-2.27697 4.299085,-0.46286 21.766517,-0.83338 38.816517,-0.82339 19.081465,0.0112 35.036927,0.51361 41.499997,1.30682 5.775,0.70875 19.95,2.64365 31.5,4.29976 11.55,1.65612 24.375,3.6905 28.5,4.52086 4.125,0.83035 7.88944,1.88672 8.36541,2.34748 0.48096,0.46557 -0.29647,2.36104 -1.75,4.26671 -1.43847,1.88594 -2.61541,4.54557 -2.61541,5.91028 0,1.36471 -1.13366,3.54631 -2.51924,4.848 -1.4069,1.32171 -3.38504,5.16982 -4.4801,8.71521 -1.07847,3.49168 -3.25823,8.2426 -4.84391,10.55761 -1.58568,2.31501 -3.89821,6.2341 -5.13894,8.7091 -1.24074,2.475 -5.43854,9.675 -9.32844,16 -3.8899,6.325 -10.47383,15.69663 -14.63096,20.82583 -4.15712,5.12921 -8.52424,10.63901 -9.70471,12.244 -1.18046,1.605 -2.64135,5.73338 -3.24642,9.17418 -0.60507,3.44079 -2.56423,11.61917 -4.3537,18.17417 -1.78947,6.555 -3.70867,12.0692 -4.26489,12.25378 -0.55623,0.18457 -5.58254,-3.82861 -11.16958,-8.91819 z m 28.68089,-8.25377 c 0,-0.275 0.225,-0.5 0.5,-0.5 0.275,0 0.5,0.225 0.5,0.5 0,0.275 -0.225,0.5 -0.5,0.5 -0.275,0 -0.5,-0.225 -0.5,-0.5 z m 10.76271,-8.06531 c -1.50551,-0.81689 -3.02663,-2.63804 -3.38026,-4.04702 -0.4433,-1.76626 -0.0265,-3.38752 1.3424,-5.22094 1.14712,-1.53646 3.8409,-3.20548 6.38025,-3.9531 l 4.3949,-1.29393 7,-10.07402 c 3.85,-5.54071 9.37224,-14.18514 12.27164,-19.20985 2.8994,-5.0247 6.20847,-11.61083 7.35349,-14.63583 1.14502,-3.025 2.81286,-8.9875 3.70632,-13.25 l 1.62447,-7.75 h 2.30528 c 1.26791,0 4.55649,1.14077 7.30795,2.53504 2.75146,1.39427 6.80123,4.15994 8.99948,6.14593 l 3.99681,3.61088 -4.82592,2.7562 c -2.65426,1.51591 -8.65903,6.78413 -13.34393,11.70716 -4.6849,4.92303 -12.12438,13.43445 -16.53219,18.91427 -4.4078,5.47981 -9.73172,12.74593 -11.83093,16.14691 -2.09921,3.40099 -4.42778,6.18361 -5.1746,6.18361 -0.94555,0 -1.35787,1.38639 -1.35787,4.56574 0,2.51116 -0.46583,5.43616 -1.03518,6.5 -0.64428,1.20384 -2.06036,1.91914 -3.75,1.89423 -1.49315,-0.022 -3.9466,-0.7084 -5.45211,-1.52528 z m 10.23729,-124.99212 c -9.625,-1.259892 -25.6,-3.01504 -35.5,-3.90033 -9.9,-0.88529 -26.999997,-1.873537 -37.999997,-2.196103 -11.433062,-0.335266 -26.219378,-0.112 -34.519491,0.521226 -7.985721,0.609241 -16.578163,1.389883 -19.094317,1.734761 l -4.574825,0.627049 -1.171611,-7.364585 c -0.644386,-4.050522 -1.591981,-11.864585 -2.105765,-17.364585 -0.513785,-5.5 -1.010667,-31.508451 -1.104182,-57.796558 -0.09352,-26.288106 0.04347,-48.010052 0.304405,-48.27099 0.260938,-0.260938 5.330151,1.150392 11.264917,3.136289 5.934766,1.985897 15.562821,4.42735 21.395677,5.425452 5.832856,0.998102 15.107774,2.123397 20.61093,2.500655 5.814497,0.398602 15.029937,0.196149 22,-0.483315 6.596849,-0.643082 15.144259,-1.818127 18.994259,-2.611211 3.85,-0.793084 9.925,-2.396877 13.5,-3.563986 3.575,-1.167109 9.92744,-3.803492 14.11652,-5.85863 4.18909,-2.055138 10.93909,-5.997456 15,-8.760707 4.06092,-2.763252 9.44782,-7.204997 11.9709,-9.870546 2.52309,-2.66555 6.28979,-6.983953 8.37047,-9.596453 2.08067,-2.612503 4.06633,-4.750003 4.41257,-4.750003 0.34625,0 0.62954,38.475003 0.62954,85.500003 v 85.499997 l -4.5,-0.13336 c -2.475,-0.0734 -12.375,-1.16418 -22,-2.42407 z"
     id="path7087"
     sodipodi:nodetypes="sssssssssssscccssssscssssssssssssssssssssssssssssssssssssssssssssssssssscsssscssscsssssssssssssscsssssssssssssssscss" /><path
     style="fill:#ffffff;stroke-width:1.0332;stroke:#ffffff"
     d="m 225.76847,189.15683 c -11.67957,-1.22204 -16.61187,-2.07091 -16.58657,-2.85464 0.0126,-0.39138 0.84423,-1.77886 1.848,-3.0833 1.82233,-2.36819 1.87076,-2.37212 32.78118,-2.65485 26.84919,-0.24559 32.53254,-0.58515 42.83799,-2.55947 23.9539,-4.58911 51.96681,-15.34968 60.21788,-23.13145 4.18702,-3.94888 6.02711,-9.29713 8.62724,-25.07543 1.37921,-8.3694 1.79208,-20.81754 2.1735,-65.531993 l 0.47087,-55.1999756 8.09289,-9.02612399 C 375.31236,-10.088475 377.08655,-13.00734 378.68103,-20.44212 c 0.99252,-4.627994 1.3087,-5.054445 2.97561,-4.013444 2.40823,1.503962 17.83979,24.73381941 22.80637,34.3315024 5.11931,9.8928126 6.66342,20.6896876 5.84472,40.8679866 -0.64792,15.969034 -1.57381,20.81502 -7.40551,38.758894 -6.81874,20.980981 -16.2744,34.791451 -41.30251,60.324371 -16.29491,16.62358 -18.22431,18.25081 -25.87355,21.82139 -12.97413,6.05616 -27.95253,11.35904 -39.77039,14.08008 -16.29573,3.75207 -50.92581,5.44352 -70.1873,3.42817 z"
     id="path7120" /><path
     style="fill:#ffffff;stroke-width:1.0332;stroke:#ffffff"
     d="M 317.33949,12.87245 C 309.73361,5.5187824 306.62336,3.3227344 298.22708,-0.62219259 292.71156,-3.2136176 288.00514,-5.4991316 287.76837,-5.7011146 c -0.82169,-0.70094 0.8026,-1.585467 4.4023,-2.39733 7.77876,-1.754396 21.09334,2.731203 29.52191,9.945747 4.96399,4.248992 7.31776,8.7966596 7.31776,14.1384876 0,6.820978 -1.92769,6.306743 -11.67085,-3.11334 z"
     id="path7121" /><path
     style="fill:#ffffff;stroke-width:1.0332;stroke:#ffffff"
     d="m 232.33486,147.10382 c -6.0429,-9.23812 -18.29384,-18.88006 -30.40835,-23.93245 -3.12543,-1.30347 -6.10924,-2.77167 -6.63069,-3.26266 -1.10855,-1.04381 -0.68941,-1.65675 34.9222,-51.069929 40.97246,-56.851657 43.74297,-60.4423096 46.63676,-60.4423096 7.26214,0 25.42111,10.3186966 33.29963,18.9222576 6.8078,7.434316 6.50516,8.540669 -7.37189,26.949152 -12.33069,16.357178 -32.62704,45.080176 -54.29836,76.841969 -7.06831,10.3594 -13.1753,18.83528 -13.5711,18.83528 -0.3958,0 -1.55599,-1.27859 -2.5782,-2.84131 z"
     id="path7122" /><path
     style="fill:#ffffff;stroke-width:1.0332;stroke:#ffffff"
     d="m 122.36997,250.79311 c 0,-2.67097 8.5446,-34.47836 9.76071,-36.33438 0.90185,-1.3764 5.01395,-6.81907 9.138,-12.09483 12.2633,-15.68806 30.1923,-45.09983 34.47304,-56.55158 1.38073,-3.6937 3.47172,-7.52946 4.64665,-8.52391 3.46972,-2.93677 9.92987,-2.30835 18.04142,1.75501 12.51839,6.2709 22.09436,16.51659 22.09436,23.63959 0,3.09396 -4.32778,6.89295 -7.8524,6.89295 -3.3448,0 -8.51405,4.82831 -19.35783,18.08104 -10.05777,12.29211 -18.96233,25.29459 -25.08234,36.62536 l -3.86382,7.1536 -9.30936,3.25081 c -11.01418,3.84613 -23.87115,10.14597 -28.28356,13.85876 -2.93619,2.47064 -4.40487,3.22003 -4.40487,2.24758 z m 15.08475,-13.4391 c 2.19356,-2.19357 3.51288,-4.52178 3.51288,-6.19921 0,-1.47748 0.11624,-2.6813 0.2583,-2.67515 0.14207,0.006 2.48253,0.68607 5.20102,1.51092 3.31374,1.00547 5.74939,1.19305 7.39035,0.56915 3.01462,-1.14615 3.46489,-1.85641 5.08744,-8.02499 2.88712,-10.97623 31.01777,-45.81317 45.86311,-56.79677 4.11989,-3.04819 7.49071,-5.92609 7.49071,-6.39535 0,-3.57091 -13.52975,-13.67563 -21.00684,-15.689 -6.939,-1.86848 -8.12842,-0.64783 -10.78326,11.06638 -2.77536,12.24601 -8.41958,23.91565 -19.67846,40.68602 -7.32407,10.90939 -8.45709,12.1114 -13.84394,14.68696 -7.13271,3.41029 -8.47697,5.62432 -7.74149,12.75046 0.54532,5.28367 0.49325,5.41406 -2.39253,5.99122 -3.15006,0.63001 -8.24283,6.93551 -8.24283,10.20568 0,3.17568 4.96599,2.23322 8.88554,-1.68632 z"
     id="path7123" /><path
     style="fill:#ffffff;stroke-width:1.0332;stroke:#ffffff"
     d="m -39.842726,146.17914 c 0,-5.55733 16.20561,-24.12111 28.16081,-32.25864 10.2433456,-6.97233 19.282832,-10.42667 31.320421,-11.96877 41.49895,-5.316289 80.624735,-4.211943 145.394105,4.10383 10.67858,1.37102 19.86117,2.76815 20.40574,3.10471 1.61508,0.99817 1.14083,2.41325 -1.33457,3.98209 -2.00357,1.26982 -3.53784,1.27483 -11.10692,0.0363 -21.00828,-3.43761 -52.25401,-7.62911 -65.60832,-8.80112 -18.405074,-1.61527 -55.811477,-1.63465 -69.168894,-0.0358 -12.824168,1.53499 -37.1077296,9.07084 -45.4845203,14.11508 -8.8740867,5.34369 -19.7807127,14.56402 -25.6366977,21.67294 -7.034165,8.53918 -6.941154,8.45812 -6.941154,6.04943 z"
     id="path7124" /><path
     style="fill:#ffffff;stroke-width:1.0332;stroke:#ffffff"
     d="m -75.98457,208.14839 c -0.08692,-5.18322 11.708908,-21.813 21.625763,-30.48802 7.278022,-6.36664 23.003452,-14.41819 35.69672,-18.27701 12.7440224,-3.87425 13.8994458,-4.07541 33.06246,-5.75607 13.897536,-1.21886 17.578669,-1.16111 35.645464,0.55925 36.076527,3.43529 96.083803,11.94145 98.039693,13.89733 1.23434,1.23435 -1.83293,4.09423 -4.70226,4.38431 -1.6822,0.17006 -17.67577,-2.01656 -35.54127,-4.85917 -55.157406,-8.77617 -56.205672,-8.85287 -86.311019,-6.31586 -36.399607,3.06745 -48.266614,6.41104 -67.196626,18.93301 -9.660892,6.39056 -17.648985,13.77853 -26.467078,24.47867 -2.107394,2.55717 -3.840725,4.10678 -3.851847,3.44356 z"
     id="path7125" /></g></svg>
